<svg xmlns="http://www.w3.org/2000/svg" viewBox="0 0 362.3976 62.7103"><defs><title>Nexcess - A Liquid Web Company</title><style>.cls-1{fill:#00aeef;}.cls-2{fill:#44c8f5;}.cls-3{fill:#0092c8;}.cls-4{fill:#6d6e71;}</style></defs><g><path class="cls-1" d="M1767.311,379.9411a12.4119,12.4119,0,0,1,19.86-9.9283c3.8887,2.7364,19.3047,15.04,19.3047,15.04v24.2143l-21.4746-17.3261V427.213H1767.311Z" transform="translate(-1767.311 -367.5294)"/><path class="cls-1" d="M1848.7778,416.0587a12.4147,12.4147,0,0,1-19.86,9.93c-3.8906-2.7422-19.3066-15.0439-19.3066-15.0439V386.73l21.4755,17.3282v-35.27h17.6914Z" transform="translate(-1767.311 -367.5294)"/><polygon class="cls-2" points="57.684 31.573 59.621 30.103 59.621 5.891 42.3 19.157 57.684 31.573"/><polygon class="cls-3" points="42.3 19.157 57.684 31.573 42.3 43.372 42.3 19.157"/><polygon class="cls-2" points="21.845 54.889 39.165 41.737 23.704 29.265 21.845 30.677 21.845 54.889"/><polygon class="cls-3" points="23.704 29.265 39.165 17.523 39.165 41.737 23.704 29.265"/><path class="cls-1" d="M1886.1382,367.5294c10.7861,0,15.21,3.6582,15.21,13.3374V403.964h-9.6114V382.0426c0-5.0508-.8974-6.5-6.36-6.5h-7.7451V403.964h-9.6045V367.5294Z" transform="translate(-1767.311 -367.5294)"/><path class="cls-1" d="M1904.0093,385.7809c0-11.8979,6.2246-18.2515,18.3271-18.2515H1936.37v7.5953h-12.7177c-6.1582,0-8.7832,1.0429-8.9912,6.8476H1936.37v7.6089h-21.7089c.208,6.0078,2.6962,6.7734,8.9209,6.7734h12.788v7.6075h-14.0332c-12.1025,0-18.3271-6.2247-18.3271-18.1812" transform="translate(-1767.311 -367.5294)"/><polygon class="cls-1" points="171.356 0 183.15 0 191.429 10.986 199.926 0 211.646 0 197.36 18.461 211.426 36.435 199.559 36.435 191.429 25.853 183.228 36.435 171.356 36.435 185.64 18.25 171.356 0"/><path class="cls-1" d="M2007.728,396.1456v7.8165H1994.66c-6.0186,0-10.3067-1.0352-13.6944-4.3575a19.2205,19.2205,0,0,1-5.3935-13.687c0-5.7422,2.0107-10.7929,5.3935-14.0386,3.3877-3.248,7.6758-4.35,13.6944-4.35h13.0683v7.8765H1997.49c-8.2286,0-11.8916,2.0742-11.8916,10.5117,0,4.353,1.3173,7.2554,4.29,9.0523,1.9355,1.1757,4.3555,1.1757,7.6016,1.1757Z" transform="translate(-1767.311 -367.5294)"/><path class="cls-1" d="M2007.8657,385.7809c0-11.8979,6.2237-18.2515,18.32-18.2515h14.042v7.5953h-12.7265c-6.1485,0-8.7754,1.0429-8.99,6.8476h21.7168v7.6089h-21.7168c.2149,6.0078,2.7,6.7734,8.9248,6.7734h12.792v7.6075h-14.042c-12.0966,0-18.32-6.2247-18.32-18.1812" transform="translate(-1767.311 -367.5294)"/><path class="cls-1" d="M2064.7114,396.3546c3.458,0,5.18-.9668,5.18-3.5273,0-2.5567-1.7217-3.5918-5.18-3.5918h-8.3007c-8.8448,0-12.5821-1.7969-12.5821-10.3,0-7.814,4.0782-11.4058,12.8623-11.4058h20.6748v7.5953h-17.0146c-4.3526,0-6.6367.2812-6.6367,3.3222,0,2.2832,1.4531,3.25,4.5634,3.25h8.709c8.0244,0,12.2471,3.8731,12.2471,10.857,0,6.8457-4.2227,11.4082-9.959,11.4082h-24.831v-7.6075Z" transform="translate(-1767.311 -367.5294)"/><path class="cls-1" d="M2101.641,396.3546c3.4561,0,5.1778-.9668,5.1778-3.5273,0-2.5567-1.7217-3.5918-5.1778-3.5918h-8.2968c-8.8505,0-12.5878-1.7969-12.5878-10.3,0-7.814,4.0761-11.4058,12.8631-11.4058H2114.29v7.5953h-17.0058c-4.3574,0-6.6347.2812-6.6347,3.3222,0,2.2832,1.4433,3.25,4.5605,3.25h8.709c8.0244,0,12.2363,3.8731,12.2363,10.857,0,6.8457-4.2119,11.4082-9.9561,11.4082h-24.8231v-7.6075Z" transform="translate(-1767.311 -367.5294)"/></g><path class="cls-1" d="M2121.5825,368.5981v4.2773h-1.1991v-4.2773h-1.751V367.55h4.6932v1.0479Z" transform="translate(-1767.311 -367.5294)"/><path class="cls-1" d="M2128.5571,372.8754v-3.206l-1.3184,2.2226h-.6483l-1.3107-2.2305v3.2139h-1.1513V367.55h1.1513l1.6387,2.7822,1.6387-2.7822h1.1514v5.3252Z" transform="translate(-1767.311 -367.5294)"/><path class="cls-4" d="M1877.9283,421.59h-6.23l-1.07,3.04h-2.5479l5.3311-14.9h2.8261l5.33,14.9H1879Zm-3.1036-8.9053-2.44,6.9141h4.8594Z" transform="translate(-1767.311 -367.5294)"/><path class="cls-4" d="M1891.8814,409.7514v12.9092h5.0312v1.97h-7.4716V409.7514Z" transform="translate(-1767.311 -367.5294)"/><path class="cls-4" d="M1898.6226,409.7085a1.5523,1.5523,0,1,1,1.5635,1.5634A1.5451,1.5451,0,0,1,1898.6226,409.7085Zm.3213,3.1259h2.44V424.63h-2.44Z" transform="translate(-1767.311 -367.5294)"/><path class="cls-4" d="M1908.941,412.6421a4.9742,4.9742,0,0,1,4.0673,1.9052v-1.7129h2.462V430.24h-2.462v-7.3222a5.2187,5.2187,0,0,1-4.1533,1.9052c-3.04,0-5.5019-2.5049-5.5019-6.1435S1905.815,412.6421,1908.941,412.6421Zm.4921,2.1191a3.6193,3.6193,0,0,0-3.5752,3.918,3.717,3.717,0,0,0,3.5752,4.0244,3.9931,3.9931,0,0,0,0-7.9424Z" transform="translate(-1767.311 -367.5294)"/><path class="cls-4" d="M1928.9322,424.63h-2.44v-1.413a4.3907,4.3907,0,0,1-3.4892,1.5839c-2.7617,0-4.8594-1.7334-4.8594-5.03v-6.9366h2.419v6.5723c0,2.1621,1.1767,3.2754,2.9541,3.2754,1.7978,0,2.9755-1.1133,2.9755-3.2754v-6.5723h2.44Z" transform="translate(-1767.311 -367.5294)"/><path class="cls-4" d="M1931.3912,409.7085a1.5522,1.5522,0,1,1,1.5634,1.5634A1.5451,1.5451,0,0,1,1931.3912,409.7085Zm.3212,3.1259h2.4405V424.63h-2.4405Z" transform="translate(-1767.311 -367.5294)"/><path class="cls-4" d="M1942.1372,412.6421a5.4331,5.4331,0,0,1,4.0674,1.8408v-5.6944h2.4619V424.63h-2.4619V422.853a4.8877,4.8877,0,0,1-4.0888,1.97c-3.1045,0-5.5664-2.5049-5.5664-6.1435S1939.0113,412.6421,1942.1372,412.6421Zm.4922,2.1191a3.6193,3.6193,0,0,0-3.5752,3.918,3.717,3.717,0,0,0,3.5752,4.0244,3.9931,3.9931,0,0,0,0-7.9424Z" transform="translate(-1767.311 -367.5294)"/><path class="cls-4" d="M1956.24,409.7514h2.59l3.083,12.1172,3.34-12.1172h2.74l3.1035,12.0528,3.1045-12.0528h2.6114l-4.4092,14.8789h-2.7617l-3.126-11.2607-3.3184,11.2607-2.74.0215Z" transform="translate(-1767.311 -367.5294)"/><path class="cls-4" d="M1983.0386,424.8227a5.7227,5.7227,0,0,1-5.8877-6.1006c0-3.7041,2.3975-6.08,5.8877-6.08a5.5012,5.5012,0,0,1,5.7373,5.8017,7.5017,7.5017,0,0,1-.0859,1.1983h-9.0127a3.2446,3.2446,0,0,0,3.3613,3.1259,2.8555,2.8555,0,0,0,2.7822-1.6484h2.6338A5.39,5.39,0,0,1,1983.0386,424.8227Zm-3.34-7.15h6.5293a3.0636,3.0636,0,0,0-3.2969-2.9756A3.2125,3.2125,0,0,0,1979.6988,417.6723Z" transform="translate(-1767.311 -367.5294)"/><path class="cls-4" d="M1997.2925,412.6421c3.126,0,5.5449,2.3974,5.5449,6.0371s-2.44,6.1435-5.5449,6.1435a5.0133,5.0133,0,0,1-4.11-1.9052V424.63h-2.44V408.7885h2.44V414.59A5.0432,5.0432,0,0,1,1997.2925,412.6421Zm-.5351,2.1191a3.9931,3.9931,0,0,0,0,7.9424,3.72,3.72,0,0,0,3.5966-4.0244A3.623,3.623,0,0,0,1996.7574,414.7612Z" transform="translate(-1767.311 -367.5294)"/><path class="cls-4" d="M2017.604,409.5591a7.0924,7.0924,0,0,1,6.9151,4.4746h-2.9326a4.1566,4.1566,0,0,0-3.9825-2.334c-2.9541,0-5.0947,2.0986-5.0947,5.459s2.1406,5.48,5.0947,5.48a4.1573,4.1573,0,0,0,3.9825-2.333h2.9326a7.0756,7.0756,0,0,1-6.9151,4.4531,7.6,7.6,0,0,1,0-15.2Z" transform="translate(-1767.311 -367.5294)"/><path class="cls-4" d="M2032.05,424.8227a5.7508,5.7508,0,0,1-5.9082-6.1006,6.016,6.016,0,1,1,12.0313,0A5.9081,5.9081,0,0,1,2032.05,424.8227Zm0-2.1191a3.6331,3.6331,0,0,0,3.6182-3.9815c0-2.6767-1.7334-3.9609-3.5537-3.9609-1.8408,0-3.4893,1.2842-3.4893,3.9609S2030.21,422.7036,2032.05,422.7036Z" transform="translate(-1767.311 -367.5294)"/><path class="cls-4" d="M2056.8814,418.0366c0-2.1621-1.1777-3.2754-2.9541-3.2754-1.7988,0-2.9756,1.1133-2.9756,3.2754V424.63h-2.4189v-6.5937c0-2.1621-1.1778-3.2754-2.9551-3.2754-1.7979,0-2.9756,1.1133-2.9756,3.2754V424.63h-2.44V412.8344h2.44v1.3487a4.4941,4.4941,0,0,1,3.4892-1.541,4.55,4.55,0,0,1,4.2393,2.333,4.6171,4.6171,0,0,1,4.11-2.333c2.7617,0,4.8593,1.7334,4.8593,5.03v6.958h-2.4189Z" transform="translate(-1767.311 -367.5294)"/><path class="cls-4" d="M2068.522,412.6421c3.1045,0,5.5449,2.3974,5.5449,6.0371s-2.44,6.1435-5.5449,6.1435a5.3315,5.3315,0,0,1-4.11-1.9052V430.24h-2.4405V412.8344h2.4405v1.7344A5.1463,5.1463,0,0,1,2068.522,412.6421Zm-.5351,2.1191a3.9931,3.9931,0,0,0,0,7.9424,3.72,3.72,0,0,0,3.5966-4.0244A3.623,3.623,0,0,0,2067.9869,414.7612Z" transform="translate(-1767.311 -367.5294)"/><path class="cls-4" d="M2081.2359,412.6421a5.0184,5.0184,0,0,1,4.0888,1.9052v-1.7129h2.462V424.63h-2.462v-1.7558a5.0749,5.0749,0,0,1-4.1318,1.9482c-3.0615,0-5.5234-2.5049-5.5234-6.1435S2078.1314,412.6421,2081.2359,412.6421Zm.5137,2.1191a3.6192,3.6192,0,0,0-3.5752,3.918,3.7169,3.7169,0,0,0,3.5752,4.0244,3.9931,3.9931,0,0,0,0-7.9424Z" transform="translate(-1767.311 -367.5294)"/><path class="cls-4" d="M2099.3648,418.0366c0-2.1621-1.1777-3.2754-2.9551-3.2754-1.7978,0-2.9756,1.1133-2.9756,3.2754V424.63h-2.44V412.8344h2.44v1.3487a4.54,4.54,0,0,1,3.5108-1.541c2.7617,0,4.8388,1.7334,4.8388,5.03v6.958h-2.4189Z" transform="translate(-1767.311 -367.5294)"/><path class="cls-4" d="M2112.5494,412.8344h2.5253l-7.2353,17.3409h-2.5264l2.3975-5.7373-4.6455-11.6036h2.7187l3.3184,8.9913Z" transform="translate(-1767.311 -367.5294)"/></svg>
